<svg width="835" height="209" viewBox="0 0 835 209" fill="none" xmlns="http://www.w3.org/2000/svg">
<path d="M30.2967 41.48C32.94 37.4133 38.6333 29.89 44.53 29.89C46.36 29.89 47.1733 35.38 47.1733 40.87C47.1733 60.39 36.3967 97.6 36.3967 106.14L34.3633 144.163C34.3633 154.127 22.3667 156.16 10.98 156.16C4.27 156.16 4.06667 148.84 4.06667 136.437C4.06667 110.817 16.47 63.6433 30.2967 41.48ZM6.71 20.13C14.64 10.98 35.99 1.74205e-07 57.95 1.74205e-07C102.277 1.74205e-07 120.373 22.9767 120.373 46.7667C120.373 72.3867 99.8367 98.6167 69.9467 98.6167C61.61 98.6167 48.19 97.6 48.19 89.4667C48.19 78.8933 88.45 95.16 88.45 47.1733C88.45 29.4833 76.0467 19.52 52.8667 19.52C23.5867 19.52 15.25 33.7533 2.64334 33.7533C1.01667 33.7533 3.23137e-06 32.94 3.23137e-06 31.5167C3.23137e-06 29.4833 2.03334 25.62 6.71 20.13ZM173.099 55.51C188.145 55.51 203.395 61.61 203.395 67.5067C203.395 69.3367 199.329 70.76 187.535 70.76C164.152 70.76 147.275 87.6367 147.275 111.427C147.275 123.423 154.392 132.98 169.032 132.98C174.929 132.98 180.012 131.557 184.282 128.913C175.132 122.61 169.845 112.85 169.845 100.65C169.845 88.6533 179.199 74.6233 196.685 74.6233C209.902 74.6233 216.409 84.18 216.409 96.7867C216.409 103.497 214.782 110.817 211.732 117.933H212.952C228.202 117.933 231.049 105.53 236.132 105.53C238.165 105.53 238.979 108.173 238.979 112.85C238.979 128.913 227.185 137.047 213.562 137.047C208.885 137.047 204.615 136.64 200.549 135.827C190.992 146.807 177.572 154.737 161.509 154.737C130.602 154.737 117.385 135.217 117.385 114.68C117.385 83.9767 138.735 55.51 173.099 55.51ZM193.432 98.82C193.432 104.107 195.262 108.783 198.719 112.24C201.159 107.157 202.175 101.87 202.175 97.8033C202.175 94.3467 200.955 91.0933 197.702 91.0933C195.262 91.0933 193.432 95.5667 193.432 98.82ZM294.279 55.9167C316.849 55.9167 325.999 69.9467 325.999 86.8233C325.999 107.767 310.749 131.15 291.636 138.47H294.076C317.256 138.47 335.556 118.34 340.639 111.63C343.689 107.563 346.332 105.733 347.959 105.733C349.992 105.733 350.806 108.377 350.806 113.053C350.806 128.1 335.759 144.57 317.052 151.687C309.326 154.737 298.346 155.753 288.179 155.753C274.149 155.753 261.746 151.687 261.746 140.097C261.746 136.233 263.576 131.963 263.576 131.963C286.146 131.963 296.312 112.037 296.312 89.2633C296.312 83.3667 291.432 77.6733 284.722 77.6733C277.199 77.6733 267.846 84.3833 261.949 95.3633C257.882 102.887 253.206 112.037 251.376 123.017C245.682 155.957 240.599 198.86 238.362 203.13C236.939 205.773 234.092 208.823 231.042 208.823C225.349 208.823 220.469 202.927 218.436 200.487C215.792 197.437 214.572 194.387 214.572 189.913C214.572 170.19 219.859 114.68 244.462 57.34C246.292 52.8667 249.749 51.6467 252.392 51.6467C258.899 51.6467 264.999 61.61 267.236 67.9133C273.539 60.7967 281.876 55.9167 294.279 55.9167ZM369.066 54.29C378.623 54.29 379.843 63.6433 379.843 74.0133C379.843 90.0767 370.286 105.937 370.286 125.05C370.286 129.32 372.319 132.37 379.436 132.37C394.483 132.37 402.209 101.667 404.446 84.9933C403.836 80.7233 403.836 70.5567 403.836 67.3033C403.836 58.7633 410.343 53.68 424.983 53.68C431.896 53.68 432.913 58.56 432.913 66.8967C432.913 88.0433 424.169 112.647 424.169 126.88C424.169 129.117 424.779 130.337 426.406 130.337C434.336 130.337 452.433 105.733 456.296 105.733C458.329 105.733 459.143 108.173 459.143 112.85C459.143 130.54 436.369 153.72 414.206 153.72C404.039 153.72 400.379 145.993 399.363 135.827C393.873 145.79 384.723 154.127 369.879 154.127C351.579 154.127 338.566 146.603 338.566 129.93C338.566 123.017 340.599 117.73 345.073 109.19L350.969 59.17C355.849 55.3067 364.796 54.29 369.066 54.29ZM494.361 153.72C471.994 153.72 451.051 142.333 451.051 113.257C451.051 63.44 475.857 1.62666 517.744 1.62666C529.334 1.62666 536.451 8.33667 536.451 19.7233C536.451 44.7333 505.341 66.8967 479.924 100.04V108.173C479.924 123.22 487.244 130.133 497.411 130.133C511.847 130.133 520.997 120.78 528.114 111.63C531.164 107.563 533.807 105.733 535.434 105.733C537.467 105.733 538.281 108.173 538.281 112.85C538.281 130.54 516.524 153.72 494.361 153.72ZM511.034 21.5533C502.291 21.5533 488.464 40.87 482.567 74.6233C500.867 46.5633 514.491 38.6333 514.491 26.0267C514.491 22.9767 513.474 21.5533 511.034 21.5533ZM580.957 55.51C596.003 55.51 611.253 61.61 611.253 67.5067C611.253 69.3367 607.187 70.76 595.393 70.76C572.01 70.76 555.133 87.6367 555.133 111.427C555.133 123.423 562.25 132.98 576.89 132.98C582.787 132.98 587.87 131.557 592.14 128.913C582.99 122.61 577.703 112.85 577.703 100.65C577.703 88.6533 587.057 74.6233 604.543 74.6233C617.76 74.6233 624.267 84.18 624.267 96.7867C624.267 103.497 622.64 110.817 619.59 117.933H620.81C636.06 117.933 638.907 105.53 643.99 105.53C646.023 105.53 646.837 108.173 646.837 112.85C646.837 128.913 635.043 137.047 621.42 137.047C616.743 137.047 612.473 136.64 608.407 135.827C598.85 146.807 585.43 154.737 569.367 154.737C538.46 154.737 525.243 135.217 525.243 114.68C525.243 83.9767 546.593 55.51 580.957 55.51ZM601.29 98.82C601.29 104.107 603.12 108.783 606.577 112.24C609.017 107.157 610.033 101.87 610.033 97.8033C610.033 94.3467 608.813 91.0933 605.56 91.0933C603.12 91.0933 601.29 95.5667 601.29 98.82ZM660.047 154.737C645.814 154.737 637.68 90.28 637.68 78.8933C637.68 63.6433 639.714 54.29 658.624 54.29C665.13 54.29 668.79 58.7633 668.79 64.8633C668.79 71.1667 666.757 84.5867 663.91 94.55C664.927 111.833 663.504 127.693 672.857 127.693C678.144 127.693 685.057 116.917 691.767 103.903C689.937 96.5833 689.327 89.06 689.327 82.35C689.327 70.3533 693.8 56.3233 711.287 56.3233C718.2 56.3233 726.74 59.5767 726.74 73.4033C726.74 81.3333 723.08 89.06 711.287 107.157C713.524 113.46 716.98 117.933 722.267 117.933C737.517 117.933 740.364 105.53 745.447 105.53C747.48 105.53 748.294 108.173 748.294 112.85C748.294 128.913 736.5 136.437 722.877 136.437C712.507 136.437 704.984 131.353 699.9 123.83C687.497 140.097 672.654 154.737 660.047 154.737ZM786.501 130.947C813.341 130.947 826.761 105.733 831.438 105.733C833.471 105.733 834.285 108.173 834.285 112.85C834.285 124.237 819.645 154.33 773.081 154.33C754.781 154.33 737.091 144.773 737.091 122.61C737.091 83.7733 762.711 55.51 790.975 55.51C806.225 55.51 814.561 63.6433 814.561 75.03C814.561 99.0233 788.535 102.277 766.981 112.24V117.323C766.981 128.507 778.978 130.947 786.501 130.947ZM783.045 73.6067C774.911 73.6067 770.438 85.4 768.405 98.21C779.791 90.6867 789.348 87.0267 789.348 78.69C789.348 75.64 787.315 73.6067 783.045 73.6067Z" fill="#F97316"/>
</svg>
